<svg xmlns="http://www.w3.org/2000/svg" viewBox="0 0 1122 1122"><defs><style>.cls-1{fill:#f7f3e8;}.cls-2{fill:#50727c;}</style></defs><g id="BG"><rect class="cls-1" width="1122" height="1122"/></g><g id="Object"><polygon class="cls-2" points="1122 107.9 934.88 107.9 934.88 222.5 1102.38 222.5 1023.89 165.2 1122 107.9"/><path class="cls-2" d="M483.66,519.05c-13.2,7.59-19.12,25.66-19.12,40.19s5.92,32.74,19.12,40.2a20,20,0,0,0,21,0l.09,0c13.21-7.46,19.13-25.57,19.13-40.2s-5.93-32.6-19.16-40.21a20.74,20.74,0,0,0-21,0Z" transform="translate(0 0)"/><path class="cls-2" d="M305.63,333.06a27.31,27.31,0,0,0-27.49-27H247.42v53.8h30.43C295.23,359.83,305.63,346.22,305.63,333.06Z" transform="translate(0 0)"/><path class="cls-2" d="M573.89,437.33a32.11,32.11,0,0,0,33.62.09l.14-.09c21.21-12,30.7-41,30.7-64.5,0-23.32-9.5-52.3-30.74-64.51a33.22,33.22,0,0,0-33.73,0c-21.18,12.19-30.68,41.18-30.68,64.49C543.2,396.3,552.68,425.36,573.89,437.33Z" transform="translate(0 0)"/><path class="cls-2" d="M413.73,437.33a32.11,32.11,0,0,0,33.62.09l.14-.09c21.21-12,30.7-41,30.7-64.5,0-23.32-9.5-52.3-30.73-64.51a33.23,33.23,0,0,0-33.74,0C392.54,320.53,383,349.52,383,372.83,383,396.3,392.53,425.36,413.73,437.33Z" transform="translate(0 0)"/><path class="cls-2" d="M910.31,1065.94H153.7c-2.75-.08-17-.89-29.53-8.37H871v-4.92H117.41a39.31,39.31,0,0,1-12.27-21.17H871v-4.92H104.21a56,56,0,0,1-.46-7,58,58,0,0,1,1.58-13.38H871v-4.92H106.77A55.38,55.38,0,0,1,120,980.05H871v-4.92H125.37a88.22,88.22,0,0,1,29.72-15.5H910.31V931H920V.58H118.09L117.81,0l-1.5.58h-1V1C99.1,7.52,10.64,47.31,10.64,137.86l10.68,883,3.66,0c.1,78.35,72.41,100.48,111.06,101.23H934.88v-29.49H910.31ZM685.94,297.62c0-4.42,4.32-8.16,9.44-8.16s9.46,3.74,9.46,8.16v61.82l75.36-67.32c1-1.41,3.83-2.66,6.78-2.66,5.12,0,9.45,3.74,9.45,8.16a8,8,0,0,1-2.74,5.79l-57.63,51.67c2.51,3.45,6.63,9.06,11.64,15.88,54.35,74,54.35,75.28,54.35,77.6,0,4.35-4.42,8.16-9.46,8.16-3.47,0-6.81-1.73-8.3-4.32l-61.73-85.15-17.72,15.84v65c0,4.58-4.15,8.16-9.46,8.16s-9.44-3.58-9.44-8.16Zm62.46,253c3.2,0,5.89,2.33,5.89,5.09s-2.58,5.07-5.89,5.07H721v40.06h43.82c3.31,0,5.89,2.23,5.89,5.08S768,611,764.78,611h-49.7c-3.2,0-5.9-2.32-5.9-5.08V512.84c0-2.76,2.7-5.08,5.9-5.08h49.7c3.2,0,5.89,2.32,5.89,5.08s-2.58,5.09-5.89,5.09H721v32.73ZM563.31,294.81c17.67-9.76,37.28-9.73,54.86,0l.07,0c28.79,16.48,39,52.33,39,78s-10.2,61.53-39,78.26a54.75,54.75,0,0,1-54.89.07c-28.88-16.81-39.09-52.69-39.09-78.33S534.52,311.29,563.31,294.81Zm27.05,219c0-3.16,2.58-5.39,5.89-5.39H620c19.39,0,35.16,13.47,35.16,30,0,12.34-8.84,23.34-21.95,27.88l4.65,7.53c19,30.69,19,31.12,19,32.28,0,2.86-2.58,5.1-5.88,5.1a6.1,6.1,0,0,1-5.17-2.68l-24.55-40.1c-5.06.28-10.25.2-15.31.11l-3.78-.06v37.8c0,2.86-2.58,5.08-5.88,5.08s-5.89-2.22-5.89-5.08l0-11.26c-.11-63.8-.13-77.76.11-81.23Zm-79.05-3.18c17.93,10.29,24.3,32.62,24.3,48.63s-6.35,38.34-24.29,48.78a34.15,34.15,0,0,1-34.2,0c-18-10.48-24.36-32.85-24.36-48.82s6.37-38.36,24.31-48.63a34.42,34.42,0,0,1,34.19,0ZM403.15,294.81c17.67-9.76,37.28-9.73,54.86,0l.08,0c28.78,16.48,39,52.33,39,78s-10.21,61.53-39,78.26a54.75,54.75,0,0,1-54.89.07c-28.88-16.81-39.09-52.69-39.09-78.33S374.36,311.29,403.15,294.81ZM346.64,508.86h56.72c3.31,0,5.89,2.23,5.89,5.09s-2.58,5.08-5.89,5.08H380.89V605.8c0,2.85-2.58,5.08-5.89,5.08s-5.89-2.23-5.89-5.08V519H346.64c-3.31,0-5.89-2.22-5.89-5.08S343.33,508.86,346.64,508.86Zm-118.12-211c0-4.42,4.32-8.15,9.44-8.15h40.18c25.59,0,46.4,19.44,46.4,43.35a42,42,0,0,1-16.68,33.23c17.71,8.47,29.08,24.48,29.08,42,0,26.71-25.71,48.45-57.32,48.45H238.26c-5.59,0-9.74-4.58-9.74-8.67Zm25.71,263.63c-11.3-3.22-32.3-9.19-32.3-28.31,0-14.81,14.7-26.85,32.77-26.85,19.63,0,33.88,12.16,33.88,28.92,0,2.81-2.72,5.08-6.07,5.08a5.71,5.71,0,0,1-5.76-4.28,20.56,20.56,0,0,1-.39-2.95,11.9,11.9,0,0,0-.53-3.2c-2.65-8.69-9.46-13.1-20.25-13.25l-1.56-.22h0a23.29,23.29,0,0,0-14.62,5.34,15,15,0,0,0-5.65,11.41c0,10.84,11,14.82,24.23,18.58h0c23.49,6.9,35.39,17.8,35.39,32.42,0,16.94-14.24,28.76-34.61,28.76-21.68,0-36.83-12.88-36.83-31.3,0-2.76,2.7-5.08,5.89-5.08a5.55,5.55,0,0,1,5.87,4.71c.1.71.15,1.49.2,2.28s.08,1.29.16,1.87c1,6.14,4.44,10.86,10.24,14a28.86,28.86,0,0,0,14.28,3.38c14,0,23-7.3,23-18.6C281.58,574.19,272.38,566.56,254.23,561.49ZM115.3,143.29V904a162.69,162.69,0,0,0-53.52,33.22L60.16,803.73Zm773,949.22H136.5c-7.92-.21-77.36-4.06-77.36-71.89,0,0,0-.1,0-.16l3.64,0L62.49,996c11.26-39.35,48-57.88,66.88-65H888.25v9.62H153.4l-3,.35c-23.78,5.74-68.74,29.56-68.74,78.57,0,50.67,46.75,65,71.71,65.46H888.25Z" transform="translate(0 0)"/><path class="cls-2" d="M643.39,538.42c0-11-10.49-19.86-23.39-19.86H602.13V558.3H620C632.9,558.3,643.39,549.38,643.39,538.42Z" transform="translate(0 0)"/><path class="cls-2" d="M318,408.27c0-17.71-17.24-32.13-38.42-32.13h-32.2V440.4h32.2C300.8,440.4,318,426,318,408.27Z" transform="translate(0 0)"/></g></svg>